<svg xmlns="http://www.w3.org/2000/svg" version="1.1" xmlns:xlink="http://www.w3.org/1999/xlink" xmlns:svgjs="http://svgjs.dev/svgjs" width="300" height="200"><svg width="300" height="200" viewBox="0 0 300 200" fill="none" xmlns="http://www.w3.org/2000/svg">
<path fill-rule="evenodd" clip-rule="evenodd" d="M150 200C232.843 200 300 155.228 300 100C300 44.7715 232.843 0 150 0C67.1573 0 0 44.7715 0 100C0 155.228 67.1573 200 150 200ZM51.2097 58C51.2097 52.201 55.9107 47.5 61.7097 47.5H239.258C245.057 47.5 249.758 52.201 249.758 58V80.303V82.803H247.258C238.049 82.803 230.403 90.6265 230.403 100.505C230.403 110.384 238.049 118.207 247.258 118.207H249.758V120.707V143.01C249.758 148.809 245.057 153.51 239.258 153.51H61.7097C55.9107 153.51 51.2097 148.809 51.2097 143.01L51.2097 120.707L51.2097 118.207H53.7097C62.9185 118.207 70.5645 110.384 70.5645 100.505C70.5645 90.6265 62.9185 82.8031 53.7097 82.803H51.2097V80.303V58ZM61.7097 52.5C58.6721 52.5 56.2097 54.9625 56.2097 58V77.9492C67.1796 79.2411 75.5645 88.9338 75.5645 100.505C75.5645 112.076 67.1796 121.769 56.2097 123.061L56.2097 143.01C56.2097 146.048 58.6721 148.51 61.7097 148.51H239.258C242.296 148.51 244.758 146.048 244.758 143.01V123.061C233.788 121.769 225.403 112.076 225.403 100.505C225.403 88.9337 233.788 79.2411 244.758 77.9492V58C244.758 54.9624 242.296 52.5 239.258 52.5H61.7097ZM104.516 73.2071C95.2486 73.2071 87.6613 80.865 87.6613 90.4041C87.6613 99.9432 95.2486 107.601 104.516 107.601C105.009 107.601 105.497 107.579 105.98 107.537C106.8 98.5046 112.957 91.0052 121.257 88.3912C120.279 79.8102 113.122 73.2071 104.516 73.2071ZM104.516 112.601C105.042 112.601 105.563 112.582 106.079 112.545C107.497 123.38 116.622 131.793 127.742 131.793C138.862 131.793 147.987 123.38 149.405 112.545C149.921 112.582 150.442 112.601 150.968 112.601C151.492 112.601 152.012 112.582 152.527 112.546C153.911 123.335 162.785 131.793 173.71 131.793C184.649 131.793 193.532 123.312 194.898 112.502C195.568 112.568 196.248 112.601 196.935 112.601C208.838 112.601 218.306 102.561 218.306 90.4041C218.306 78.247 208.838 68.2071 196.935 68.2071C185.996 68.2071 177.113 76.6876 175.747 87.498C175.077 87.4325 174.397 87.399 173.71 87.399C173.347 87.399 172.986 87.4084 172.627 87.4268C171.197 76.606 162.079 68.2071 150.968 68.2071C139.847 68.2071 130.723 76.6205 129.305 87.4547C128.789 87.4178 128.267 87.399 127.742 87.399C127.216 87.399 126.695 87.4178 126.179 87.4547C124.761 76.6205 115.637 68.2071 104.516 68.2071C92.4049 68.2071 82.6613 78.1865 82.6613 90.4041C82.6613 102.622 92.4049 112.601 104.516 112.601ZM150.968 107.601C150.475 107.601 149.986 107.579 149.504 107.537C148.684 98.5046 142.527 91.0052 134.227 88.3912C135.205 79.8102 142.362 73.2071 150.968 73.2071C159.538 73.2071 166.672 79.7567 167.696 88.2867C159.389 90.8068 153.241 98.4159 152.43 107.537C151.948 107.579 151.46 107.601 150.968 107.601ZM144.266 106.186C143.167 100.603 139.421 96.0176 134.443 93.8137C135.543 99.3972 139.288 103.982 144.266 106.186ZM144.483 111.609C136.183 108.995 130.025 101.495 129.206 92.4632C128.723 92.4207 128.235 92.399 127.742 92.399C127.249 92.399 126.761 92.4207 126.278 92.4632C125.458 101.495 119.301 108.995 111.001 111.609C111.979 120.19 119.136 126.793 127.742 126.793C136.348 126.793 143.505 120.19 144.483 111.609ZM157.658 106.191C158.749 100.464 162.539 95.8163 167.519 93.6755C166.454 99.3257 162.683 103.971 157.658 106.191ZM173.71 126.793C165.403 126.793 158.402 120.237 157.449 111.61C165.762 108.994 171.925 101.478 172.733 92.4294C173.056 92.4092 173.382 92.399 173.71 92.399C174.369 92.399 175.02 92.4403 175.661 92.5207C176.462 101.272 182.175 108.623 189.992 111.407C189.127 120.134 182.081 126.793 173.71 126.793ZM111.218 106.186C116.196 103.982 119.941 99.3972 121.04 93.8137C116.062 96.0176 112.317 100.603 111.218 106.186ZM180.654 88.5934C181.518 79.8663 188.564 73.2071 196.935 73.2071C205.877 73.2071 213.306 80.8044 213.306 90.4041C213.306 100.004 205.877 107.601 196.935 107.601C196.276 107.601 195.625 107.56 194.984 107.479C194.184 98.7276 188.47 91.3769 180.654 88.5934ZM189.687 105.823C188.594 100.675 185.309 96.438 180.958 94.1767C182.051 99.3254 185.336 103.562 189.687 105.823Z" fill="#D9D9D9"></path>
</svg><style>@media (prefers-color-scheme: light) { :root { filter: none; } }
@media (prefers-color-scheme: dark) { :root { filter: none; } }
</style></svg>