<svg width="206" height="106" viewBox="0 0 206 106" fill="none" xmlns="http://www.w3.org/2000/svg">
<path fill-rule="evenodd" clip-rule="evenodd" d="M11 0.5C5.20101 0.5 0.5 5.20101 0.5 11V33V35.5H3C12.665 35.5 20.5 43.335 20.5 53C20.5 62.665 12.665 70.5 3 70.5H0.5V73V95C0.5 100.799 5.20102 105.5 11 105.5H195C200.799 105.5 205.5 100.799 205.5 95V73V70.5H203C193.335 70.5 185.5 62.665 185.5 53C185.5 43.335 193.335 35.5 203 35.5H205.5V33V11C205.5 5.20101 200.799 0.5 195 0.5H11ZM5.5 11C5.5 7.96243 7.96243 5.5 11 5.5H39V9.45833C39 10.839 40.1193 11.9583 41.5 11.9583C42.8807 11.9583 44 10.839 44 9.45833V5.5H166V9.45833C166 10.839 167.119 11.9583 168.5 11.9583C169.881 11.9583 171 10.839 171 9.45833V5.5H195C198.038 5.5 200.5 7.96243 200.5 11V30.6373C189.25 31.8809 180.5 41.4186 180.5 53C180.5 64.5814 189.25 74.1191 200.5 75.3627V95C200.5 98.0376 198.038 100.5 195 100.5H171V96.5417C171 95.1609 169.881 94.0417 168.5 94.0417C167.119 94.0417 166 95.1609 166 96.5417V100.5H44V96.5417C44 95.1609 42.8807 94.0417 41.5 94.0417C40.1193 94.0417 39 95.1609 39 96.5417V100.5H11C7.96244 100.5 5.5 98.0376 5.5 95V75.3627C16.7499 74.1191 25.5 64.5814 25.5 53C25.5 41.4186 16.7499 31.8809 5.5 30.6373V11ZM171 17.375C171 15.9943 169.881 14.875 168.5 14.875C167.119 14.875 166 15.9943 166 17.375V25.2917C166 26.6724 167.119 27.7917 168.5 27.7917C169.881 27.7917 171 26.6724 171 25.2917V17.375ZM171 33.2083C171 31.8276 169.881 30.7083 168.5 30.7083C167.119 30.7083 166 31.8276 166 33.2083V41.125C166 42.5057 167.119 43.625 168.5 43.625C169.881 43.625 171 42.5057 171 41.125V33.2083ZM171 49.0417C171 47.661 169.881 46.5417 168.5 46.5417C167.119 46.5417 166 47.661 166 49.0417V56.9583C166 58.339 167.119 59.4583 168.5 59.4583C169.881 59.4583 171 58.339 171 56.9583V49.0417ZM171 64.875C171 63.4943 169.881 62.375 168.5 62.375C167.119 62.375 166 63.4943 166 64.875V72.7917C166 74.1724 167.119 75.2917 168.5 75.2917C169.881 75.2917 171 74.1724 171 72.7917V64.875ZM171 80.7083C171 79.3276 169.881 78.2083 168.5 78.2083C167.119 78.2083 166 79.3276 166 80.7083V88.625C166 90.0057 167.119 91.125 168.5 91.125C169.881 91.125 171 90.0057 171 88.625V80.7083ZM41.5 14.875C42.8807 14.875 44 15.9943 44 17.375V25.2917C44 26.6724 42.8807 27.7917 41.5 27.7917C40.1193 27.7917 39 26.6724 39 25.2917V17.375C39 15.9943 40.1193 14.875 41.5 14.875ZM41.5 30.7083C42.8807 30.7083 44 31.8276 44 33.2083V41.125C44 42.5057 42.8807 43.625 41.5 43.625C40.1193 43.625 39 42.5057 39 41.125V33.2083C39 31.8276 40.1193 30.7083 41.5 30.7083ZM41.5 46.5417C42.8807 46.5417 44 47.661 44 49.0417V56.9583C44 58.339 42.8807 59.4583 41.5 59.4583C40.1193 59.4583 39 58.339 39 56.9583V49.0417C39 47.661 40.1193 46.5417 41.5 46.5417ZM41.5 62.375C42.8807 62.375 44 63.4943 44 64.875V72.7917C44 74.1724 42.8807 75.2917 41.5 75.2917C40.1193 75.2917 39 74.1724 39 72.7917V64.875C39 63.4943 40.1193 62.375 41.5 62.375ZM41.5 78.2083C42.8807 78.2083 44 79.3276 44 80.7083V88.625C44 90.0057 42.8807 91.125 41.5 91.125C40.1193 91.125 39 90.0057 39 88.625V80.7083C39 79.3276 40.1193 78.2083 41.5 78.2083ZM55.5 46.2858C55.5 39.8445 60.896 34.5 67.7059 34.5C73.9413 34.5 78.9913 38.9808 79.799 44.6816C73.8307 46.6685 69.3035 51.7696 68.3385 58.0561C68.1291 58.0664 67.9182 58.0716 67.7059 58.0716C60.896 58.0716 55.5 52.7271 55.5 46.2858ZM68.3346 63.0605C68.1259 63.0679 67.9163 63.0716 67.7059 63.0716C58.2721 63.0716 50.5 55.6241 50.5 46.2858C50.5 36.9474 58.2721 29.5 67.7059 29.5C76.2844 29.5 83.4888 35.6583 84.7247 43.7966C84.9334 43.7893 85.143 43.7856 85.3534 43.7856C85.5634 43.7856 85.7727 43.7893 85.981 43.7966C87.2169 35.6582 94.4214 29.5 103 29.5C111.578 29.5 118.783 35.6582 120.019 43.7966C120.227 43.7893 120.437 43.7856 120.647 43.7856C120.857 43.7856 121.067 43.7893 121.275 43.7966C122.511 35.6582 129.716 29.5 138.294 29.5C147.728 29.5 155.5 36.9474 155.5 46.2858C155.5 55.6241 147.728 63.0716 138.294 63.0716C138.084 63.0716 137.875 63.0679 137.666 63.0605C136.43 71.1989 129.226 77.3571 120.647 77.3571C112.069 77.3571 104.864 71.1989 103.629 63.0605C103.42 63.0678 103.21 63.0716 103 63.0716C102.79 63.0716 102.581 63.0679 102.372 63.0605C101.136 71.1989 93.9318 77.3571 85.3534 77.3571C76.7749 77.3571 69.5704 71.1989 68.3346 63.0605ZM102.368 58.0561C102.577 58.0664 102.788 58.0716 103 58.0716C103.212 58.0716 103.423 58.0664 103.632 58.0561C104.597 51.7696 109.125 46.6685 115.093 44.6816C114.285 38.9808 109.235 34.5 103 34.5C96.7645 34.5 91.7146 38.9806 90.9068 44.6812C96.8756 46.668 101.403 51.7693 102.368 58.0561ZM96.7828 56.4326C95.8024 53.9123 93.952 51.7893 91.5704 50.4246C92.5508 52.9448 94.4012 55.0679 96.7828 56.4326ZM85.985 48.801C86.9501 55.0878 91.4776 60.1892 97.4464 62.1759C96.6386 67.8765 91.5887 72.3571 85.3534 72.3571C79.1179 72.3571 74.0679 67.8764 73.2603 62.1756C79.2286 60.1886 83.7557 55.0875 84.7207 48.801C84.9301 48.7908 85.1411 48.7856 85.3534 48.7856C85.5653 48.7856 85.7759 48.7908 85.985 48.801ZM109.218 56.4319C110.198 53.9124 112.048 51.7899 114.429 50.4253C113.449 52.9448 111.599 55.0672 109.218 56.4319ZM108.554 62.1756C109.362 67.8764 114.412 72.3571 120.647 72.3571C126.883 72.3571 131.933 67.8765 132.74 62.1758C126.772 60.189 122.244 55.0877 121.279 48.801C121.07 48.7908 120.859 48.7856 120.647 48.7856C120.435 48.7856 120.224 48.7908 120.015 48.801C119.05 55.0875 114.522 60.1886 108.554 62.1756ZM73.9242 56.4319C76.305 55.0672 78.1547 52.9448 79.1351 50.4253C76.7543 51.7899 74.9045 53.9124 73.9242 56.4319ZM138.294 34.5C132.059 34.5 127.009 38.9807 126.201 44.6814C132.17 46.6682 136.697 51.7694 137.662 58.0561C137.871 58.0664 138.082 58.0716 138.294 58.0716C145.104 58.0716 150.5 52.7271 150.5 46.2858C150.5 39.8445 145.104 34.5 138.294 34.5ZM132.077 56.4323C131.096 53.9124 129.246 51.7895 126.865 50.4248C127.845 52.9448 129.695 55.0676 132.077 56.4323Z" fill="#002E54"/>
</svg>
